<svg xmlns="http://www.w3.org/2000/svg" viewBox="0 0 720 720" role="img" aria-labelledby="title desc">
<title id="title">Immagine cocktail non disponibile</title><desc id="desc">Segnaposto decorativo con un bicchiere da cocktail.</desc>
<defs><linearGradient id="bg" x1="0" y1="0" x2="1" y2="1"><stop stop-color="#f5ecdf"/><stop offset="1" stop-color="#dfcba9"/></linearGradient><linearGradient id="drink" x1="0" y1="0" x2="0" y2="1"><stop stop-color="#d9b75d"/><stop offset="1" stop-color="#9a651e"/></linearGradient></defs>
<rect width="720" height="720" fill="url(#bg)"/><circle cx="590" cy="130" r="105" fill="#fff" opacity=".18"/><circle cx="118" cy="575" r="160" fill="#fff" opacity=".12"/>
<path d="M205 205h310l-52 184c-14 50-59 84-111 84h-4c-52 0-97-34-111-84z" fill="#fff" opacity=".34" stroke="#5d421e" stroke-width="12" stroke-linejoin="round"/>
<path d="M239 270h242l-32 112c-10 36-43 61-81 61h-16c-38 0-71-25-81-61z" fill="url(#drink)" opacity=".9"/>
<path d="M360 473v112M282 605h156" fill="none" stroke="#5d421e" stroke-width="14" stroke-linecap="round"/>
<path d="M475 239c36-44 91-38 107-28-17 54-62 73-103 57" fill="#d78831" stroke="#5d421e" stroke-width="10" stroke-linejoin="round"/>
</svg>